<?xml version="1.0" encoding="utf-8"?>
<svg version="1.1" id="Camada_1" xmlns="http://www.w3.org/2000/svg" xmlns:xlink="http://www.w3.org/1999/xlink" x="0px" y="0px"
     viewBox="0 0 512 512" style="enable-background:new 0 0 512 512 ;" xml:space="preserve">
<style type="text/css">
    .st0{fill:#FFFFFF;}
    .st1{fill-rule:evenodd;clip-rule:evenodd;fill:#FFFFFF;}
    .st2{fill:#C61535;}
    .st3{fill:#BDBCBC;}
</style>
<g>
	<g>
		<polygon class="st0" points="253.6,79.6 245.7,79.6 245.1,79.6 245.1,79 245.1,37.3 245.1,36.7 245.7,36.7 253.6,36.7 254.2,36.7 
			254.2,37.3 254.2,79 254.2,79.6 		"/>
		<path class="st0" d="M204.2,79.6h-8.5V36.7h8.7l0.2,0.2L223,59.7l0,0c0.5,0.7,1,1.3,1.4,1.8c0.4,0.5,0.8,1,1.3,1.7l0,0
			c0.4,0.5,0.8,1.1,1.1,1.6l0,0c0-0.5,0-1.1,0-1.7c0-1.3,0-2.5,0-3.5V36.7h9.1v42.9h-8.1l-0.2-0.2l-19.1-23.7
			c-0.4-0.6-0.9-1.1-1.4-1.7c-0.4-0.6-0.9-1.1-1.2-1.6c-0.4-0.5-0.8-1-1.1-1.5l-0.1-0.1c0,0.4,0,0.8,0,1.2c0,1.2,0,2.3,0,3.5v24.3
			L204.2,79.6L204.2,79.6z"/>
		<path class="st0" d="M173.9,79.7c-1.7,0.3-3.6,0.5-5.6,0.5s-3.9-0.2-5.7-0.5c-1.7-0.3-3.3-0.9-4.7-1.6l0,0
			c-1.4-0.7-2.7-1.6-3.8-2.6s-1.9-2.3-2.6-3.7c-0.3-0.6-0.6-1.2-0.8-1.8c-0.2-0.6-0.4-1.3-0.5-2l0,0c-0.1-0.7-0.2-1.4-0.3-2.2
			c-0.1-0.8-0.1-1.6-0.1-2.4V36.7h9.1v26.2c0,0.5,0,1.1,0.1,1.5c0.1,0.5,0.1,1,0.2,1.4l0,0c0.1,0.4,0.2,0.9,0.4,1.3s0.3,0.8,0.5,1.1
			l0,0c0.4,0.7,0.8,1.3,1.3,1.8c0.5,0.5,1.1,1,1.8,1.4l0,0c0.7,0.4,1.5,0.7,2.3,0.8c0.9,0.2,1.8,0.3,2.9,0.3c1,0,2-0.1,2.9-0.3
			c0.9-0.2,1.6-0.5,2.3-0.8l0,0c0.7-0.4,1.3-0.8,1.8-1.4s0.9-1.2,1.3-1.8l0,0c0.4-0.7,0.6-1.5,0.8-2.4c0.2-0.9,0.3-1.9,0.3-3V36.7
			h9.1v26.7c0,0.8,0,1.6-0.1,2.4l0,0c-0.1,0.8-0.2,1.5-0.3,2.2l0,0c-0.1,0.7-0.3,1.4-0.5,2c-0.2,0.7-0.5,1.2-0.8,1.8
			c-0.7,1.4-1.6,2.6-2.7,3.7c-1.1,1.1-2.3,1.9-3.8,2.6l0,0C177.2,78.9,175.6,79.4,173.9,79.7L173.9,79.7z"/>
		<polygon class="st1" points="286,44 272.3,44 272.3,54.2 285.8,54.2 285.9,61.5 272.3,61.5 272.3,79.6 263.4,79.6 263.4,36.7 
			288.3,36.7 		"/>
		<path class="st1" d="M305.5,56.5h5.4c3.4,0,6.2-2.8,6.2-6.2s-2.8-6.2-6.2-6.2h-5.4L305.5,56.5L305.5,56.5L305.5,56.5z M307.9,63.8
			h-2.5v15.9h-8.9v-43H314c6.7,0,12.1,5.4,12.1,12.1c0,5.6-3.8,10.4-9,11.7c1.9,0.8,3.2,2.5,4.3,4.5l6,10l0,0c0.4,0.7,0.8,1.4,1.2,2
			c0.3,0.5,0.6,1.1,1,1.9l0,0c0.1,0.2,0.2,0.5,0.4,0.7h-10.2l-6.4-10.7l-1.1-1.9C310.9,64.6,309.5,63.8,307.9,63.8L307.9,63.8z"/>
		<path class="st1" d="M350.7,36.7h7.4l17.6,42.9H366l-3.8-10.2H347l-3.8,10.2H334L350.7,36.7L350.7,36.7L350.7,36.7z M359.4,61.8
			c-1.5-4.4-3.5-10-4.5-13.3c-0.1-0.4-0.6-0.4-0.7,0c-1,3.4-3,8.9-4.4,13.3H359.4L359.4,61.8z"/>
		<path class="st0" d="M388.1,79.6h-8.5V36.7h8.7l0.2,0.2l18.4,22.8l0,0c0.5,0.7,1,1.3,1.4,1.8c0.4,0.5,0.8,1,1.3,1.7l0,0
			c0.4,0.5,0.8,1.1,1.1,1.6l0,0c0-0.5,0-1.1,0-1.7c0-1.3,0-2.5,0-3.5V36.7h9.1v42.9h-8.1l-0.2-0.2l-19.1-23.7
			c-0.5-0.6-0.9-1.1-1.4-1.7c-0.4-0.6-0.9-1.1-1.2-1.6c-0.4-0.5-0.8-1-1.1-1.5l-0.1-0.1c0,0.4,0,0.8,0,1.2c0,1.2,0,2.3,0,3.5v24.3
			L388.1,79.6L388.1,79.6z"/>
	</g>
	<path class="st1" d="M164.3,110.4c-1.4,1.4-3.4,2.3-6.5,2.3c-2.9,0-4.8-0.8-6.1-2c-1.7-1.7-2.1-4.1-2.1-6.3V90.5h2.9v13.9
		c0,1.5,0.4,3.2,1.5,4.3c0.8,0.9,2.1,1.4,3.9,1.4c2,0,3.4-0.5,4.2-1.4c0.9-1,1.3-2.5,1.3-4.1V90.5h3v14.3
		C166.4,106.9,165.8,108.9,164.3,110.4L164.3,110.4z"/>
	<path class="st1" d="M180.1,112.3v-9.5c0-1.8-0.3-3.9-2.6-3.9c-1.7,0-3.4,1.1-4.6,2.2v11.2h-2.9V96.6h2.5l0.4,1.8
		c1.8-1.3,3.4-2.2,5.6-2.2s4.6,1.6,4.6,5.6v10.5L180.1,112.3L180.1,112.3z"/>
	<polygon class="st1" points="200.1,112.4 197.9,112.4 191.8,96.6 194.8,96.6 199.1,108.6 199.1,108.6 203.8,96.6 206.6,96.6 	"/>
	<path class="st1" d="M213.9,98.6c-2.2,0-3.6,1.9-3.6,4.2h7C217.3,100.8,216.2,98.6,213.9,98.6L213.9,98.6z M210.4,105.1
		c0,2.8,1.8,5.1,4.9,5.1c1.4,0,2.8-0.5,3.8-1.1l0.8,2c-1.4,1-3.4,1.6-5.2,1.6c-5.1,0-7.5-4-7.5-8.4s2.6-8,6.6-8s6.5,3.2,6.5,8.1v0.8
		C220.4,105.1,210.4,105.1,210.4,105.1z"/>
	<path class="st1" d="M231.3,99.5c-0.4-0.2-1-0.4-1.6-0.4c-0.9,0-2.3,0.7-3.3,1.7v11.5h-3V96.6h2.5l0.4,1.8c2-1.8,3.2-2.2,4.4-2.2
		c0.7,0,1.4,0.3,1.8,0.5L231.3,99.5L231.3,99.5z"/>
	<path class="st1" d="M237.8,112.7c-2.4,0-3.9-0.6-5.1-1.3l1.1-2.2c0.9,0.6,2.3,1.2,3.9,1.2c1.8,0,3.1-0.8,3.1-2.1
		c0-3.5-7.2-2.2-7.2-7.7c0-2.4,1.8-4.3,5.5-4.3c1.8,0,3.1,0.4,4.1,0.8v2.5c-1.2-0.5-2.4-1-4-1c-1.5,0-2.7,0.5-2.7,1.8
		c0,3.2,7.3,2.3,7.3,7.5C243.8,111.3,241,112.7,237.8,112.7L237.8,112.7z"/>
	<path class="st1" d="M246.7,112.3V96.6h2.9v15.7H246.7z M250.2,91.7c0,1.1-0.9,2-2,2s-2-0.9-2-2c0-1,0.9-1.9,2-1.9
		S250.2,90.6,250.2,91.7z"/>
	<path class="st1" d="M263.4,99.1c-0.6-0.2-1.1-0.3-2.2-0.3c-3,0-5.5,2.2-5.5,5.8c0,3.3,1.9,5.7,5.7,5.7c0.7,0,1.6-0.2,2-0.4V99.1
		L263.4,99.1L263.4,99.1z M261,112.7c-4.5,0-8.2-2.6-8.2-8c0-4.9,3.6-8.4,8.3-8.4c1,0,1.8,0.1,2.4,0.2v-7.6h3v22.7
		C265.2,112.1,263.3,112.7,261,112.7L261,112.7z"/>
	<path class="st1" d="M278.6,104.9l-2.9,0.1c-2.6,0.1-3.6,1-3.6,2.6c0,1.5,1,2.7,2.9,2.7c1.8,0,3-0.9,3.6-1.5L278.6,104.9
		L278.6,104.9L278.6,104.9z M279.4,112.3l-0.6-1.5c-1,0.9-2.5,1.8-4.7,1.8c-2.7,0-4.9-1.8-4.9-4.9s2.3-5,6.4-5.2l3.1-0.1V102
		c0-2.4-1.4-3.3-3.2-3.3s-3.2,0.7-4.1,1.4l-1.1-2c2-1.4,3.7-1.8,5.7-1.8c3.3,0,5.7,1.4,5.7,5.4v5.3c0,3.7,0.1,4.8,0.3,5.4
		C281.9,112.3,279.4,112.3,279.4,112.3z"/>
	<path class="st1" d="M294.9,99.1c-0.6-0.2-1.1-0.3-2.2-0.3c-3,0-5.5,2.2-5.5,5.8c0,3.3,1.9,5.7,5.7,5.7c0.7,0,1.5-0.2,2-0.4V99.1
		L294.9,99.1L294.9,99.1z M292.5,112.7c-4.5,0-8.2-2.6-8.2-8c0-4.9,3.6-8.4,8.3-8.4c1,0,1.8,0.1,2.4,0.2v-7.6h2.9v22.7
		C296.7,112.1,294.8,112.7,292.5,112.7z"/>
	<path class="st1" d="M307.2,98.6c-2.2,0-3.5,1.9-3.5,4.2h7C310.6,100.8,309.5,98.6,307.2,98.6L307.2,98.6z M303.7,105.1
		c0,2.8,1.8,5.1,4.9,5.1c1.4,0,2.8-0.5,3.8-1.1l0.8,2c-1.4,1-3.4,1.6-5.2,1.6c-5.1,0-7.5-4-7.5-8.4s2.6-8,6.6-8s6.5,3.2,6.5,8.1v0.8
		L303.7,105.1L303.7,105.1z"/>
	<path class="st1" d="M173,131.4c-2.2,0-3.6,1.9-3.6,4.2h7C176.4,133.5,175.3,131.4,173,131.4L173,131.4z M169.5,137.9
		c0,2.8,1.8,5.1,4.9,5.1c1.4,0,2.8-0.5,3.8-1.1l0.8,1.9c-1.4,1-3.4,1.6-5.2,1.6c-5.1,0-7.5-4-7.5-8.4s2.6-8,6.6-8s6.5,3.2,6.5,8.1
		v0.8L169.5,137.9L169.5,137.9z"/>
	<path class="st1" d="M160.3,131.9c-0.6-0.2-1.1-0.3-2.2-0.3c-3,0-5.4,2.2-5.4,5.8c0,3.3,1.9,5.7,5.6,5.7c0.7,0,1.6-0.2,2-0.4
		L160.3,131.9L160.3,131.9L160.3,131.9z M157.9,145.4c-4.5,0-8.2-2.6-8.2-8c0-4.9,3.6-8.4,8.3-8.4c1,0,1.8,0.1,2.4,0.2v-7.6h2.9
		v22.6C162.1,144.9,160.2,145.4,157.9,145.4L157.9,145.4z"/>
	<path class="st1" d="M186,112.4V96.7h2.9v15.7H186z M189.4,91.8c0,1.1-0.9,2-2,2s-2-0.9-2-2c0-1,0.9-1.9,2-1.9
		S189.4,90.7,189.4,91.8z"/>
	<path class="st1" d="M222.1,137.2l-2.9,0.1c-2.6,0.1-3.6,1-3.6,2.6c0,1.5,1,2.7,2.9,2.7c1.8,0,2.9-0.9,3.6-1.5V137.2L222.1,137.2
		L222.1,137.2z M222.9,144.6l-0.6-1.5c-1,0.9-2.5,1.8-4.7,1.8c-2.7,0-4.9-1.9-4.9-4.9s2.3-5,6.4-5.1l3.1-0.1v-0.6
		c0-2.4-1.4-3.3-3.2-3.3s-3.2,0.7-4.1,1.4l-1.1-2c2-1.4,3.7-1.8,5.7-1.8c3.3,0,5.7,1.4,5.7,5.4v5.3c0,3.7,0.1,4.8,0.3,5.4
		L222.9,144.6L222.9,144.6z"/>
	<path class="st1" d="M210.3,131.8c-0.4-0.2-1-0.4-1.6-0.4c-0.9,0-2.3,0.7-3.3,1.7v11.5h-3v-15.7h2.5l0.4,1.8c2-1.8,3.2-2.1,4.4-2.1
		c0.7,0,1.4,0.3,1.8,0.5L210.3,131.8z"/>
	<path class="st1" d="M238.8,144.6v-9.5c0-1.8-0.3-3.9-2.6-3.9c-1.7,0-3.4,1.1-4.6,2.2v11.2h-2.9v-15.7h2.5l0.4,1.8
		c1.8-1.3,3.4-2.2,5.6-2.2s4.6,1.6,4.6,5.6v10.5L238.8,144.6L238.8,144.6z"/>
	<path class="st1" d="M269.5,137.2l-2.9,0.1c-2.6,0.1-3.6,1-3.6,2.6c0,1.5,1,2.7,2.9,2.7c1.8,0,3-0.9,3.6-1.5L269.5,137.2
		L269.5,137.2L269.5,137.2z M270.4,144.6l-0.6-1.5c-1,0.9-2.5,1.8-4.7,1.8c-2.7,0-4.9-1.9-4.9-4.9s2.3-5,6.4-5.1l3.1-0.1v-0.6
		c0-2.4-1.4-3.3-3.2-3.3s-3.2,0.7-4.1,1.4l-1.1-2c2-1.4,3.7-1.8,5.7-1.8c3.3,0,5.7,1.4,5.7,5.4v5.3c0,3.7,0.1,4.8,0.3,5.4
		L270.4,144.6L270.4,144.6z"/>
	<path class="st1" d="M252.5,144.7c-4.8,0-7.3-3.7-7.3-7.9s2.8-8.3,7.8-8.3c1.6,0,3.1,0.4,4.1,1l0,2.6c-1-0.7-2.3-1.2-4-1.2
		c-3,0-4.9,2.4-4.9,5.7s1.8,5.7,4.9,5.7c1.6,0,2.8-0.5,3.8-1.1l0.8,2C256.4,143.9,254.5,144.7,252.5,144.7L252.5,144.7z"/>
	<polygon class="st0" points="191,144.6 193.9,144.6 193.9,134.5 200.7,134.5 200.7,132.2 193.9,132.2 193.9,125.1 200.7,125.1 
		201.6,122.8 191,122.8 	"/>
</g>
<path class="st2" d="M105.2,115.4c-2-5.3-4.4-11.8-6.4-18.6c-3.8-12.7-7.1-25-7-25c2.5-1.6,24.6-16.7,40.5-25.8
	c0.2-0.1,4.9-2.8,5.4-6c0.1-0.9,0-1.8-0.3-2.6c-0.8-2.4-2.8-4.5-8.5-4.9c-4.4-0.3-12.2-0.8-20.8-0.3c-8.4,0.3-17.4,1.2-24.1,2.3
	c0,0-2.7-16.4-3.6-23.2c-0.1-0.4-0.5-3-1.2-4.1c-0.7-1.1-1.8-2.1-3.7-2.5c-2-0.4-3.5,0.2-4.5,0.9c-1.1,0.8-2.4,2.8-2.8,3.3
	c-4.3,6-16.3,23.8-22.3,34c0,0-18.7,5.8-30.2,10.5c-3.4,1.4-3.7,3.1-3.8,4c-0.1,0.7,0,2.4,2.6,4.6c3.3,2.8,13.8,11.4,13.8,11.4
	c-3.7,5.8-17.9,34.8-19.3,42.9c-0.4,2.3-0.4,4.7,1.3,6.9c1.1,1.4,3,2.3,4.9,2.4c2.4,0,5.7-2.5,7.1-3.5c11.3-8.1,33.4-25,33.4-25
	c8.3,7.5,25.9,23.5,35.2,32.2c1.1,1,4.5,4.2,7.8,4.2c6.4,0.2,8.4-5.2,8.7-7.2C108,122,105.8,117.1,105.2,115.4L105.2,115.4z
	 M18.9,58.7c-0.3-0.2-1.1-0.8-1.1-1.7c0-0.4,0.2-0.8,0.8-1.1c0.2-0.1,0.9-0.4,1-0.5c2-0.7,10.7-3.9,22.7-6.8
	c-3.1,5.4-5.2,8.7-6.6,11.3c-3.3,5.8-3.3,6-4.7,8.4C31,68.3,21.3,60.6,18.9,58.7z M24.3,105.3c-0.3,0.2-1.5,1-1.8,1.1
	c-2.5,1.2-3-0.3-3.2-0.9c-0.3-1.2,0.8-3.4,0.9-3.7c2.4-5.2,11.9-25.3,11.9-25.3s11.8,10.1,14.7,12.7
	C46.8,89.2,29.7,101.5,24.3,105.3L24.3,105.3z M85.3,97.8c2,6.7,4.2,13.8,5.3,17.2c0.3,0.9,0.3,1.8,0,2.3c-0.3,0.5-0.9,0.7-1.7,0.3
	c-0.3-0.2-1.3-0.9-1.4-1C83.3,112.9,61,93.3,61,93.3l19.3-13.6C80.3,79.7,82.8,89.2,85.3,97.8L85.3,97.8z M51.8,85.5
	c0,0-16.1-13.4-17-14.2c0,0,10.2-19.2,13.4-24c2-0.5,17-3.3,24-4.2c0,0,2.1,11.6,5.2,25C77.5,68.1,56.7,81.9,51.8,85.5z M96.7,40.8
	c6.9-0.3,14.2-0.4,14.8-0.4c1.8,0,3.2,0.2,3.5,1c0.4,1-0.4,2.2-1.7,3c-0.3,0.2-4.4,2.9-8.9,6C97.6,55,89.1,60.6,89.1,60.6
	c0.1,0.2-3.3-14.9-3.9-18.9C85.2,41.7,90.9,41.1,96.7,40.8z M65.3,21.2c0.1-0.2,1.3-1.6,2.1-1.6s1.2,1,1.2,1.6
	c0.2,1.3,0.5,3.1,0.9,6.1c0.7,4.4,1.6,9.4,1.6,9.4c-4.6,0.9-15.7,3.5-19.3,4.5C55.7,34.8,62.9,24.2,65.3,21.2z"/>
<path class="st3" d="M89.1,60.6L89.1,60.6L89.1,60.6z"/>
<path class="st3" d="M89.1,60.6L89.1,60.6L89.1,60.6z"/>
</svg>
